<svg height="467pt" viewBox="0 0 467.83355 467" width="467pt" xmlns="http://www.w3.org/2000/svg"><path d="m456.527344 223.320312c4.398437 6.679688 4.398437 15.339844 0 22.019532l-23.589844 35.769531c-2.363281 3.582031-3.507812 7.828125-3.269531 12.113281l2.367187 42.988282c.433594 7.933593-3.867187 15.367187-10.957031 18.949218l-38.203125 19.300782c-3.8125 1.921874-6.90625 5.015624-8.828125 8.828124l-19.300781 38.203126c-3.582032 7.089843-11.019532 11.390624-18.949219 10.957031l-42.992187-2.367188c-4.28125-.238281-8.527344.90625-12.109376 3.269531l-35.769531 23.589844c-6.679687 4.398438-15.339843 4.398438-22.019531 0l-35.769531-23.589844c-3.582031-2.363281-7.828125-3.507812-12.109375-3.269531l-42.992188 2.367188c-7.929687.433593-15.367187-3.867188-18.949218-10.957031l-19.300782-38.203126c-1.921875-3.8125-5.015625-6.90625-8.828125-8.828124l-38.199219-19.300782c-7.089843-3.582031-11.390624-11.015625-10.960937-18.949218l2.371094-42.988282c.234375-4.285156-.910157-8.53125-3.273438-12.113281l-23.589843-35.769531c-4.398438-6.679688-4.398438-15.339844 0-22.019532l23.589843-35.769531c2.363281-3.582031 3.507813-7.828125 3.273438-12.109375l-2.371094-42.992187c-.429687-7.929688 3.871094-15.367188 10.960937-18.949219l38.199219-19.300781c3.8125-1.921875 6.90625-5.015625 8.828125-8.828125l19.300782-38.199219c3.582031-7.089844 11.019531-11.390625 18.949218-10.960937l42.992188 2.371093c4.28125.238281 8.527344-.910156 12.109375-3.269531l35.769531-23.589844c6.679688-4.402344 15.339844-4.402344 22.019531 0l35.769531 23.589844c3.582032 2.359375 7.828126 3.507812 12.109376 3.269531l42.992187-2.371093c7.929687-.429688 15.367187 3.871093 18.949219 10.960937l19.300781 38.199219c1.921875 3.8125 5.015625 6.90625 8.828125 8.828125l38.203125 19.300781c7.089844 3.582031 11.390625 11.019531 10.957031 18.949219l-2.367187 42.992187c-.238281 4.28125.90625 8.527344 3.269531 12.109375zm-62.671875 11.011719c0-88.332031-71.605469-159.941406-159.9375-159.941406-88.335938 0-159.941407 71.609375-159.941407 159.941406s71.605469 159.9375 159.941407 159.9375c88.328125 0 159.9375-71.605469 159.9375-159.9375zm0 0" fill="#00acea"/><path d="m233.917969 74.390625c88.332031 0 159.9375 71.609375 159.9375 159.941406s-71.605469 159.9375-159.9375 159.9375c-88.335938 0-159.941407-71.605469-159.941407-159.9375s71.609376-159.941406 159.941407-159.941406zm126.199219 129.789063c0-3.199219-1.402344-6.699219-4.699219-6.699219h-35.601563c-3.398437 0-6.800781 1.601562-6.800781 4.800781v63.5c0 3.199219 3.402344 4.800781 6.800781 4.800781h35.601563c3.296875 0 4.699219-3.5 4.699219-6.703125 0-3.699218-1.699219-6.898437-4.699219-6.898437h-26.800781v-17h15c3.300781 0 4.699218-3.199219 4.699218-5.898438 0-3.203125-1.699218-6.101562-4.699218-6.101562h-15v-16.898438h26.800781c3 0 4.699219-3.203125 4.699219-6.902343zm-63.300782.199218c0-3.296875-1.398437-6.898437-4.699218-6.898437h-43.199219c-3.300781 0-4.703125 3.601562-4.703125 6.898437 0 3.800782 1.703125 7.101563 4.703125 7.101563h13.796875v54.300781c0 3.199219 3.902344 4.800781 7.800781 4.800781 3.902344 0 7.800781-1.601562 7.800781-4.800781v-54.300781h13.800782c3 0 4.699218-3.300781 4.699218-7.101563zm-66.898437 43.203125v-26.5c0-17.203125-10.800781-23.601562-24.601563-23.601562-13.800781 0-24.5 6.398437-24.5 23.601562v26.5c0 17.199219 10.699219 23.597657 24.5 23.597657 13.800782 0 24.601563-6.398438 24.601563-23.597657zm-64.300781-42.601562c.105468-.359375.171874-.726563.199218-1.101563 0-3.699218-5.699218-6.398437-10-6.398437-2.5 0-4.5.800781-5.101562 2.898437l-13.898438 51.300782-14-51.300782c-.601562-2.097656-2.601562-2.898437-5.101562-2.898437-4.296875 0-10 2.699219-10 6.398437.027344.375.09375.742188.203125 1.101563l18.699219 61c1.097656 3.5 5.597656 5.199219 10.199218 5.199219 4.601563 0 9.101563-1.699219 10.199219-5.199219zm0 0" fill="#00efd1"/><path d="m214.316406 221.082031v26.5c0 6.898438-3.398437 10-9 10-5.601562 0-8.898437-3.101562-8.898437-10v-26.5c0-6.902343 3.296875-10 8.898437-10 5.601563 0 9 3.097657 9 10zm0 0" fill="#00efd1"/><g fill="#083863"><path d="m233.917969 66.390625c-92.601563 0-167.941407 75.339844-167.941407 167.941406 0 92.597657 75.339844 167.9375 167.941407 167.9375 92.597656 0 167.9375-75.339843 167.9375-167.9375 0-92.601562-75.339844-167.941406-167.9375-167.941406zm0 319.878906c-83.78125 0-151.941407-68.160156-151.941407-151.9375 0-83.78125 68.160157-151.941406 151.941407-151.941406 83.777343 0 151.9375 68.160156 151.9375 151.941406 0 83.777344-68.160157 151.9375-151.9375 151.9375zm0 0"/><path d="m439.617188 183.148438c-1.414063-2.152344-2.101563-4.699219-1.960938-7.269532l2.367188-43c.605468-11.101562-5.414063-21.507812-15.339844-26.523437l-38.207032-19.296875c-2.28125-1.15625-4.132812-3.011719-5.289062-5.292969l-19.300781-38.203125c-5.011719-9.929688-15.425781-15.949219-26.53125-15.339844l-43 2.371094c-2.566407.136719-5.109375-.550781-7.257813-1.964844l-35.765625-23.585937c-9.351562-6.167969-21.476562-6.167969-30.824219 0l-35.777343 23.585937c-2.148438 1.417969-4.695313 2.105469-7.261719 1.964844l-43-2.371094c-11.101562-.597656-21.507812 5.421875-26.527344 15.339844l-19.296875 38.207031c-1.15625 2.28125-3.011719 4.132813-5.292969 5.289063l-38.203124 19.300781c-9.921876 5.015625-15.945313 15.425781-15.339844 26.53125l2.371094 43c.136718 2.566406-.550782 5.109375-1.960938 7.257813l-23.59375 35.773437c-6.167969 9.347656-6.167969 21.472656 0 30.824219l23.589844 35.765625c1.414062 2.152343 2.101562 4.699219 1.960937 7.269531l-2.367187 43c-.605469 11.101562 5.414062 21.507812 15.339844 26.523438l38.207031 19.300781c2.28125 1.15625 4.132812 3.011719 5.289062 5.292969l19.300781 38.199218c5.011719 9.929688 15.425782 15.953125 26.53125 15.34375l43-2.371094c2.566407-.136718 5.109376.550782 7.257813 1.960938l35.773437 23.589844c9.351563 6.167968 21.476563 6.167968 30.824219 0l35.769531-23.585938c2.152344-1.410156 4.695313-2.097656 7.265626-1.960937l43 2.367187c11.105468.613282 21.515624-5.410156 26.523437-15.339844l19.300781-38.207031c1.15625-2.28125 3.011719-4.132812 5.292969-5.289062l38.199219-19.300781c9.925781-5.015626 15.945312-15.425782 15.339844-26.53125l-2.371094-43c-.132813-2.566407.550781-5.109376 1.964844-7.257813l23.589843-35.773437c6.167969-9.351563 6.167969-21.476563 0-30.824219zm10.230468 57.789062-23.589844 35.769531c-3.296874 5.019531-4.898437 10.960938-4.578124 16.953125l2.367187 42.984375c.261719 4.761719-2.320313 9.222657-6.578125 11.375l-38.195312 19.300781c-5.332032 2.703126-9.664063 7.035157-12.367188 12.367188l-19.300781 38.199219c-2.148438 4.253906-6.609375 6.835937-11.367188 6.578125l-42.984375-2.367188c-5.996094-.328125-11.941406 1.277344-16.960937 4.578125l-35.765625 23.585938c-4.007813 2.644531-9.207032 2.644531-13.214844 0l-35.773438-23.589844c-4.582031-3.007813-9.941406-4.613281-15.421874-4.621094-.511719 0-1.023438.011719-1.53125.042969l-42.980469 2.367188c-4.761719.261718-9.226563-2.320313-11.378907-6.578126l-19.300781-38.191406c-2.699219-5.335937-7.035156-9.667968-12.367187-12.371094l-38.199219-19.300781c-4.253906-2.148437-6.835937-6.609375-6.578125-11.367187l2.367188-42.984375c.324218-5.996094-1.28125-11.941407-4.574219-16.960938l-23.589844-35.765625c-2.640625-4.011718-2.640625-9.207031 0-13.214844l23.59375-35.773437c3.292969-5.019531 4.894531-10.957031 4.574219-16.953125l-2.367188-42.980469c-.261718-4.761719 2.320313-9.226562 6.578125-11.378906l38.195313-19.296875c5.332031-2.703125 9.664062-7.035156 12.367187-12.367188l19.300781-38.203124c2.148438-4.253907 6.609376-6.835938 11.367188-6.578126l42.984375 2.371094c5.996094.320313 11.941406-1.28125 16.960937-4.578125l35.765626-23.589843c4.007812-2.640626 9.207031-2.640626 13.214843 0l35.773438 23.59375c5.019531 3.296874 10.957031 4.898437 16.953125 4.578124l42.980468-2.371093c4.765626-.261719 9.230469 2.320312 11.378907 6.578125l19.300781 38.195312c2.703125 5.332032 7.035156 9.664063 12.367188 12.371094l38.199218 19.296875c4.253906 2.152344 6.835938 6.609375 6.578125 11.371094l-2.367187 42.980469c-.324219 6 1.28125 11.941406 4.578125 16.964843l23.585937 35.765625c2.644532 4.007813 2.644532 9.203125 0 13.214844zm0 0"/><path d="m155.816406 196.980469c-3.042968 0-4.96875 1.128906-5.582031 3.269531l-13.417969 49.523438-13.515625-49.53125c-.613281-2.132813-2.542969-3.261719-5.582031-3.261719-4.28125 0-10.5 2.6875-10.5 6.898437.023438.410156.09375.8125.210938 1.203125l.488281-.101562-.484375.121093 18.707031 61.027344c1.058594 3.371094 5.25 5.550782 10.675781 5.550782 5.425782 0 9.617188-2.179688 10.679688-5.554688l18.609375-61.039062c.113281-.390626.1875-.792969.210937-1.199219 0-4.21875-6.21875-6.90625-10.5-6.90625zm0 0"/><path d="m229.804688 218.164062c-.0625-.800781-.15625-1.578124-.269532-2.328124-.023437-.140626-.042968-.285157-.066406-.429688-.113281-.679688-.25-1.339844-.40625-1.980469-.054688-.230469-.113281-.453125-.175781-.679687-.140625-.515625-.292969-1.019532-.460938-1.507813-3.140625-9.261719-11.210937-14.257812-23.558593-14.257812-16.121094 0-24.949219 8.558593-24.949219 24.101562v26.5c0 15.539063 8.828125 24.097657 24.949219 24.097657 12.347656 0 20.417968-5 23.558593-14.253907.167969-.488281.320313-.996093.460938-1.511719.0625-.222656.121093-.449218.175781-.679687.15625-.636719.292969-1.296875.40625-1.980469.023438-.140625.042969-.285156.066406-.429687.113282-.75.207032-1.523438.269532-2.328125.003906-.089844.007812-.179688.015624-.269532.058594-.855468.097657-1.730468.097657-2.644531v-26.5c0-.914062-.035157-1.792969-.097657-2.644531-.003906-.089844-.011718-.183594-.015624-.273438zm-15.886719 2.917969v26.5c0 6.296875-2.910157 9.5-8.550781 9.5-5.574219 0-8.449219-3.203125-8.449219-9.5v-26.5c0-6.300781 2.875-9.5 8.449219-9.5 5.640624 0 8.550781 3.195313 8.550781 9.5zm0 0"/><path d="m292.117188 197.332031h-43.199219c-3.59375 0-5.203125 3.714844-5.203125 7.398438 0 4.476562 2.140625 7.601562 5.203125 7.601562h13v53.449219c0 3.640625 4.5 5.300781 8.5 5.300781s8.5-1.660156 8.5-5.300781v-53.449219h13.199219c3.0625 0 5.199218-3.125 5.199218-7.601562 0-3.683594-1.609375-7.398438-5.199218-7.398438zm0 0"/><path d="m312.917969 202.28125v63.5c0 3.640625 3.382812 5.550781 6.898437 5.550781h35.601563c3.589843 0 5.199219-3.816406 5.199219-7.402343 0-4.355469-2.140626-7.597657-5.199219-7.597657h-26.5v-16h14.699219c3.570312 0 5.199218-3.316406 5.199218-6.402343 0-3.277344-1.785156-6.597657-5.199218-6.597657h-14.699219v-16h26.5c3.058593 0 5.199219-2.746093 5.199219-7.101562 0-3.582031-1.609376-6.898438-5.199219-6.898438h-35.601563c-3.515625 0-6.898437 1.308594-6.898437 4.949219zm0 0"/></g></svg>